<mxfile host="app.diagrams.net" modified="2023-09-14T01:18:34.369Z" agent="Mozilla/5.0 (Windows NT 10.0; Win64; x64) AppleWebKit/537.36 (KHTML, like Gecko) Chrome/115.0.0.0 Safari/537.36 OPR/101.0.0.0" etag="V3annOpd25rHC1n85sUf" version="21.7.4" type="device">
  <diagram name="Seite-1" id="mgTGHhtudh_ZVd_dp6bq">
    <mxGraphModel dx="796" dy="455" grid="1" gridSize="10" guides="1" tooltips="1" connect="1" arrows="1" fold="1" page="1" pageScale="1" pageWidth="827" pageHeight="1169" math="0" shadow="0">
      <root>
        <mxCell id="0" />
        <mxCell id="1" parent="0" />
        <mxCell id="yvjDSjV-OAR_UCFlR2id-7" value="0" style="text;html=1;strokeColor=none;fillColor=none;align=center;verticalAlign=middle;whiteSpace=wrap;rounded=0;" parent="1" vertex="1">
          <mxGeometry x="210" y="270" width="30" height="30" as="geometry" />
        </mxCell>
        <mxCell id="yvjDSjV-OAR_UCFlR2id-8" value="1" style="text;html=1;strokeColor=none;fillColor=none;align=center;verticalAlign=middle;whiteSpace=wrap;rounded=0;" parent="1" vertex="1">
          <mxGeometry x="240" y="270" width="30" height="30" as="geometry" />
        </mxCell>
        <mxCell id="yvjDSjV-OAR_UCFlR2id-9" value="2" style="text;html=1;strokeColor=none;fillColor=none;align=center;verticalAlign=middle;whiteSpace=wrap;rounded=0;" parent="1" vertex="1">
          <mxGeometry x="270" y="270" width="30" height="30" as="geometry" />
        </mxCell>
        <mxCell id="yvjDSjV-OAR_UCFlR2id-10" value="3" style="text;html=1;strokeColor=none;fillColor=none;align=center;verticalAlign=middle;whiteSpace=wrap;rounded=0;" parent="1" vertex="1">
          <mxGeometry x="300" y="270" width="30" height="30" as="geometry" />
        </mxCell>
        <mxCell id="yvjDSjV-OAR_UCFlR2id-11" value="4" style="text;html=1;strokeColor=none;fillColor=none;align=center;verticalAlign=middle;whiteSpace=wrap;rounded=0;" parent="1" vertex="1">
          <mxGeometry x="330" y="270" width="30" height="30" as="geometry" />
        </mxCell>
        <mxCell id="yvjDSjV-OAR_UCFlR2id-13" value="x" style="text;html=1;strokeColor=none;fillColor=none;align=center;verticalAlign=middle;whiteSpace=wrap;rounded=0;" parent="1" vertex="1">
          <mxGeometry x="255" y="300" width="60" height="30" as="geometry" />
        </mxCell>
        <mxCell id="yvjDSjV-OAR_UCFlR2id-15" value="" style="shape=curlyBracket;whiteSpace=wrap;html=1;rounded=1;flipH=1;labelPosition=right;verticalLabelPosition=middle;align=left;verticalAlign=middle;rotation=90;" parent="1" vertex="1">
          <mxGeometry x="275" y="225" width="20" height="150" as="geometry" />
        </mxCell>
        <mxCell id="yvjDSjV-OAR_UCFlR2id-16" value="" style="shape=curlyBracket;whiteSpace=wrap;html=1;rounded=1;labelPosition=left;verticalLabelPosition=middle;align=right;verticalAlign=middle;" parent="1" vertex="1">
          <mxGeometry x="170" y="120" width="20" height="150" as="geometry" />
        </mxCell>
        <mxCell id="yvjDSjV-OAR_UCFlR2id-17" value="0" style="text;html=1;strokeColor=none;fillColor=none;align=center;verticalAlign=middle;whiteSpace=wrap;rounded=0;" parent="1" vertex="1">
          <mxGeometry x="180" y="240" width="30" height="30" as="geometry" />
        </mxCell>
        <mxCell id="yvjDSjV-OAR_UCFlR2id-18" value="1" style="text;html=1;strokeColor=none;fillColor=none;align=center;verticalAlign=middle;whiteSpace=wrap;rounded=0;" parent="1" vertex="1">
          <mxGeometry x="180" y="210" width="30" height="30" as="geometry" />
        </mxCell>
        <mxCell id="yvjDSjV-OAR_UCFlR2id-19" value="2" style="text;html=1;strokeColor=none;fillColor=none;align=center;verticalAlign=middle;whiteSpace=wrap;rounded=0;" parent="1" vertex="1">
          <mxGeometry x="180" y="180" width="30" height="30" as="geometry" />
        </mxCell>
        <mxCell id="yvjDSjV-OAR_UCFlR2id-20" value="3" style="text;html=1;strokeColor=none;fillColor=none;align=center;verticalAlign=middle;whiteSpace=wrap;rounded=0;" parent="1" vertex="1">
          <mxGeometry x="180" y="150" width="30" height="30" as="geometry" />
        </mxCell>
        <mxCell id="yvjDSjV-OAR_UCFlR2id-21" value="4" style="text;html=1;strokeColor=none;fillColor=none;align=center;verticalAlign=middle;whiteSpace=wrap;rounded=0;" parent="1" vertex="1">
          <mxGeometry x="180" y="120" width="30" height="30" as="geometry" />
        </mxCell>
        <mxCell id="yvjDSjV-OAR_UCFlR2id-42" value="y" style="text;html=1;strokeColor=none;fillColor=none;align=center;verticalAlign=middle;whiteSpace=wrap;rounded=0;" parent="1" vertex="1">
          <mxGeometry x="130" y="180" width="60" height="30" as="geometry" />
        </mxCell>
        <mxCell id="EK3I1rne3cS6E6rQjDy5-1" value="r0" style="rounded=0;whiteSpace=wrap;html=1;fillColor=#FFCCCC;" parent="1" vertex="1">
          <mxGeometry x="210" y="240" width="30" height="30" as="geometry" />
        </mxCell>
        <mxCell id="EK3I1rne3cS6E6rQjDy5-2" value="r1" style="rounded=0;whiteSpace=wrap;html=1;fillColor=#FF9999;" parent="1" vertex="1">
          <mxGeometry x="240" y="240" width="30" height="30" as="geometry" />
        </mxCell>
        <mxCell id="EK3I1rne3cS6E6rQjDy5-3" value="r2" style="rounded=0;whiteSpace=wrap;html=1;fillColor=#FF6666;" parent="1" vertex="1">
          <mxGeometry x="270" y="240" width="30" height="30" as="geometry" />
        </mxCell>
        <mxCell id="EK3I1rne3cS6E6rQjDy5-4" value="r3" style="rounded=0;whiteSpace=wrap;html=1;fillColor=#FF3333;" parent="1" vertex="1">
          <mxGeometry x="300" y="240" width="30" height="30" as="geometry" />
        </mxCell>
        <mxCell id="EK3I1rne3cS6E6rQjDy5-5" value="r4" style="rounded=0;whiteSpace=wrap;html=1;fillColor=#CC0000;" parent="1" vertex="1">
          <mxGeometry x="330" y="240" width="30" height="30" as="geometry" />
        </mxCell>
        <mxCell id="EK3I1rne3cS6E6rQjDy5-6" value="o0" style="rounded=0;whiteSpace=wrap;html=1;fillColor=#FFE6CC;" parent="1" vertex="1">
          <mxGeometry x="210" y="210" width="30" height="30" as="geometry" />
        </mxCell>
        <mxCell id="EK3I1rne3cS6E6rQjDy5-7" value="o1" style="rounded=0;whiteSpace=wrap;html=1;fillColor=#FFCC99;" parent="1" vertex="1">
          <mxGeometry x="240" y="210" width="30" height="30" as="geometry" />
        </mxCell>
        <mxCell id="EK3I1rne3cS6E6rQjDy5-8" value="o2" style="rounded=0;whiteSpace=wrap;html=1;fillColor=#FFB366;" parent="1" vertex="1">
          <mxGeometry x="270" y="210" width="30" height="30" as="geometry" />
        </mxCell>
        <mxCell id="EK3I1rne3cS6E6rQjDy5-9" value="o3" style="rounded=0;whiteSpace=wrap;html=1;fillColor=#FF9933;" parent="1" vertex="1">
          <mxGeometry x="300" y="210" width="30" height="30" as="geometry" />
        </mxCell>
        <mxCell id="EK3I1rne3cS6E6rQjDy5-10" value="o4" style="rounded=0;whiteSpace=wrap;html=1;fillColor=#CC6600;" parent="1" vertex="1">
          <mxGeometry x="330" y="210" width="30" height="30" as="geometry" />
        </mxCell>
        <mxCell id="EK3I1rne3cS6E6rQjDy5-11" value="y0" style="rounded=0;whiteSpace=wrap;html=1;fillColor=#FFFFCC;" parent="1" vertex="1">
          <mxGeometry x="210" y="180" width="30" height="30" as="geometry" />
        </mxCell>
        <mxCell id="EK3I1rne3cS6E6rQjDy5-12" value="y1" style="rounded=0;whiteSpace=wrap;html=1;fillColor=#FFFF99;" parent="1" vertex="1">
          <mxGeometry x="240" y="180" width="30" height="30" as="geometry" />
        </mxCell>
        <mxCell id="EK3I1rne3cS6E6rQjDy5-13" value="y2" style="rounded=0;whiteSpace=wrap;html=1;fillColor=#FFFF66;" parent="1" vertex="1">
          <mxGeometry x="270" y="180" width="30" height="30" as="geometry" />
        </mxCell>
        <mxCell id="EK3I1rne3cS6E6rQjDy5-14" value="y3" style="rounded=0;whiteSpace=wrap;html=1;fillColor=#FFFF33;" parent="1" vertex="1">
          <mxGeometry x="300" y="180" width="30" height="30" as="geometry" />
        </mxCell>
        <mxCell id="EK3I1rne3cS6E6rQjDy5-15" value="y4" style="rounded=0;whiteSpace=wrap;html=1;fillColor=#CCCC00;" parent="1" vertex="1">
          <mxGeometry x="330" y="180" width="30" height="30" as="geometry" />
        </mxCell>
        <mxCell id="EK3I1rne3cS6E6rQjDy5-16" value="g0" style="rounded=0;whiteSpace=wrap;html=1;fillColor=#E6FFCC;" parent="1" vertex="1">
          <mxGeometry x="210" y="150" width="30" height="30" as="geometry" />
        </mxCell>
        <mxCell id="EK3I1rne3cS6E6rQjDy5-17" value="g1" style="rounded=0;whiteSpace=wrap;html=1;fillColor=#CCFF99;" parent="1" vertex="1">
          <mxGeometry x="240" y="150" width="30" height="30" as="geometry" />
        </mxCell>
        <mxCell id="EK3I1rne3cS6E6rQjDy5-18" value="g2" style="rounded=0;whiteSpace=wrap;html=1;fillColor=#B3FF66;" parent="1" vertex="1">
          <mxGeometry x="270" y="150" width="30" height="30" as="geometry" />
        </mxCell>
        <mxCell id="EK3I1rne3cS6E6rQjDy5-19" value="g3" style="rounded=0;whiteSpace=wrap;html=1;fillColor=#99FF33;" parent="1" vertex="1">
          <mxGeometry x="300" y="150" width="30" height="30" as="geometry" />
        </mxCell>
        <mxCell id="EK3I1rne3cS6E6rQjDy5-20" value="g4" style="rounded=0;whiteSpace=wrap;html=1;fillColor=#66CC00;" parent="1" vertex="1">
          <mxGeometry x="330" y="150" width="30" height="30" as="geometry" />
        </mxCell>
        <mxCell id="EK3I1rne3cS6E6rQjDy5-21" value="b0" style="rounded=0;whiteSpace=wrap;html=1;fillColor=#CCFFFF;" parent="1" vertex="1">
          <mxGeometry x="210" y="120" width="30" height="30" as="geometry" />
        </mxCell>
        <mxCell id="EK3I1rne3cS6E6rQjDy5-22" value="b1" style="rounded=0;whiteSpace=wrap;html=1;fillColor=#99FFFF;" parent="1" vertex="1">
          <mxGeometry x="240" y="120" width="30" height="30" as="geometry" />
        </mxCell>
        <mxCell id="EK3I1rne3cS6E6rQjDy5-23" value="b2" style="rounded=0;whiteSpace=wrap;html=1;fillColor=#66FFFF;" parent="1" vertex="1">
          <mxGeometry x="270" y="120" width="30" height="30" as="geometry" />
        </mxCell>
        <mxCell id="EK3I1rne3cS6E6rQjDy5-24" value="b3" style="rounded=0;whiteSpace=wrap;html=1;fillColor=#33FFFF;" parent="1" vertex="1">
          <mxGeometry x="300" y="120" width="30" height="30" as="geometry" />
        </mxCell>
        <mxCell id="EK3I1rne3cS6E6rQjDy5-25" value="b4" style="rounded=0;whiteSpace=wrap;html=1;fillColor=#00CCCC;" parent="1" vertex="1">
          <mxGeometry x="330" y="120" width="30" height="30" as="geometry" />
        </mxCell>
        <mxCell id="EK3I1rne3cS6E6rQjDy5-51" value="r0" style="rounded=0;whiteSpace=wrap;html=1;fillColor=#FFCCCC;" parent="1" vertex="1">
          <mxGeometry x="480" y="240" width="30" height="30" as="geometry" />
        </mxCell>
        <mxCell id="EK3I1rne3cS6E6rQjDy5-52" value="r1" style="rounded=0;whiteSpace=wrap;html=1;fillColor=#FF9999;" parent="1" vertex="1">
          <mxGeometry x="480" y="180" width="30" height="30" as="geometry" />
        </mxCell>
        <mxCell id="EK3I1rne3cS6E6rQjDy5-53" value="r2" style="rounded=0;whiteSpace=wrap;html=1;fillColor=#FF6666;" parent="1" vertex="1">
          <mxGeometry x="480" y="120" width="30" height="30" as="geometry" />
        </mxCell>
        <mxCell id="EK3I1rne3cS6E6rQjDy5-54" value="r3" style="rounded=0;whiteSpace=wrap;html=1;fillColor=#FF3333;" parent="1" vertex="1">
          <mxGeometry x="480" y="210" width="30" height="30" as="geometry" />
        </mxCell>
        <mxCell id="EK3I1rne3cS6E6rQjDy5-55" value="r4" style="rounded=0;whiteSpace=wrap;html=1;fillColor=#CC0000;" parent="1" vertex="1">
          <mxGeometry x="480" y="150" width="30" height="30" as="geometry" />
        </mxCell>
        <mxCell id="EK3I1rne3cS6E6rQjDy5-56" value="o0" style="rounded=0;whiteSpace=wrap;html=1;fillColor=#FFE6CC;" parent="1" vertex="1">
          <mxGeometry x="510" y="150" width="30" height="30" as="geometry" />
        </mxCell>
        <mxCell id="EK3I1rne3cS6E6rQjDy5-57" value="o1" style="rounded=0;whiteSpace=wrap;html=1;fillColor=#FFCC99;" parent="1" vertex="1">
          <mxGeometry x="510" y="240" width="30" height="30" as="geometry" />
        </mxCell>
        <mxCell id="EK3I1rne3cS6E6rQjDy5-58" value="o2" style="rounded=0;whiteSpace=wrap;html=1;fillColor=#FFB366;" parent="1" vertex="1">
          <mxGeometry x="510" y="180" width="30" height="30" as="geometry" />
        </mxCell>
        <mxCell id="EK3I1rne3cS6E6rQjDy5-59" value="o3" style="rounded=0;whiteSpace=wrap;html=1;fillColor=#FF9933;" parent="1" vertex="1">
          <mxGeometry x="510" y="120" width="30" height="30" as="geometry" />
        </mxCell>
        <mxCell id="EK3I1rne3cS6E6rQjDy5-60" value="o4" style="rounded=0;whiteSpace=wrap;html=1;fillColor=#CC6600;" parent="1" vertex="1">
          <mxGeometry x="510" y="210" width="30" height="30" as="geometry" />
        </mxCell>
        <mxCell id="EK3I1rne3cS6E6rQjDy5-61" value="y0" style="rounded=0;whiteSpace=wrap;html=1;fillColor=#FFFFCC;" parent="1" vertex="1">
          <mxGeometry x="540" y="210" width="30" height="30" as="geometry" />
        </mxCell>
        <mxCell id="EK3I1rne3cS6E6rQjDy5-62" value="y1" style="rounded=0;whiteSpace=wrap;html=1;fillColor=#FFFF99;" parent="1" vertex="1">
          <mxGeometry x="540" y="150" width="30" height="30" as="geometry" />
        </mxCell>
        <mxCell id="EK3I1rne3cS6E6rQjDy5-63" value="y2" style="rounded=0;whiteSpace=wrap;html=1;fillColor=#FFFF66;" parent="1" vertex="1">
          <mxGeometry x="540" y="240" width="30" height="30" as="geometry" />
        </mxCell>
        <mxCell id="EK3I1rne3cS6E6rQjDy5-64" value="y3" style="rounded=0;whiteSpace=wrap;html=1;fillColor=#FFFF33;" parent="1" vertex="1">
          <mxGeometry x="540" y="180" width="30" height="30" as="geometry" />
        </mxCell>
        <mxCell id="EK3I1rne3cS6E6rQjDy5-65" value="y4" style="rounded=0;whiteSpace=wrap;html=1;fillColor=#CCCC00;" parent="1" vertex="1">
          <mxGeometry x="540" y="120" width="30" height="30" as="geometry" />
        </mxCell>
        <mxCell id="EK3I1rne3cS6E6rQjDy5-66" value="g0" style="rounded=0;whiteSpace=wrap;html=1;fillColor=#E6FFCC;" parent="1" vertex="1">
          <mxGeometry x="570" y="120" width="30" height="30" as="geometry" />
        </mxCell>
        <mxCell id="EK3I1rne3cS6E6rQjDy5-67" value="g1" style="rounded=0;whiteSpace=wrap;html=1;fillColor=#CCFF99;" parent="1" vertex="1">
          <mxGeometry x="570" y="210" width="30" height="30" as="geometry" />
        </mxCell>
        <mxCell id="EK3I1rne3cS6E6rQjDy5-68" value="g2" style="rounded=0;whiteSpace=wrap;html=1;fillColor=#B3FF66;" parent="1" vertex="1">
          <mxGeometry x="570" y="150" width="30" height="30" as="geometry" />
        </mxCell>
        <mxCell id="EK3I1rne3cS6E6rQjDy5-69" value="g3" style="rounded=0;whiteSpace=wrap;html=1;fillColor=#99FF33;" parent="1" vertex="1">
          <mxGeometry x="570" y="240" width="30" height="30" as="geometry" />
        </mxCell>
        <mxCell id="EK3I1rne3cS6E6rQjDy5-70" value="g4" style="rounded=0;whiteSpace=wrap;html=1;fillColor=#66CC00;" parent="1" vertex="1">
          <mxGeometry x="570" y="180" width="30" height="30" as="geometry" />
        </mxCell>
        <mxCell id="EK3I1rne3cS6E6rQjDy5-71" value="b0" style="rounded=0;whiteSpace=wrap;html=1;fillColor=#CCFFFF;" parent="1" vertex="1">
          <mxGeometry x="600" y="180" width="30" height="30" as="geometry" />
        </mxCell>
        <mxCell id="EK3I1rne3cS6E6rQjDy5-72" value="b1" style="rounded=0;whiteSpace=wrap;html=1;fillColor=#99FFFF;" parent="1" vertex="1">
          <mxGeometry x="600" y="120" width="30" height="30" as="geometry" />
        </mxCell>
        <mxCell id="EK3I1rne3cS6E6rQjDy5-73" value="b2" style="rounded=0;whiteSpace=wrap;html=1;fillColor=#66FFFF;" parent="1" vertex="1">
          <mxGeometry x="600" y="210" width="30" height="30" as="geometry" />
        </mxCell>
        <mxCell id="EK3I1rne3cS6E6rQjDy5-74" value="b3" style="rounded=0;whiteSpace=wrap;html=1;fillColor=#33FFFF;" parent="1" vertex="1">
          <mxGeometry x="600" y="150" width="30" height="30" as="geometry" />
        </mxCell>
        <mxCell id="EK3I1rne3cS6E6rQjDy5-75" value="b4" style="rounded=0;whiteSpace=wrap;html=1;fillColor=#00CCCC;" parent="1" vertex="1">
          <mxGeometry x="600" y="240" width="30" height="30" as="geometry" />
        </mxCell>
        <mxCell id="EK3I1rne3cS6E6rQjDy5-76" value="" style="shape=flexArrow;endArrow=classic;html=1;rounded=0;fillColor=#dae8fc;strokeColor=#6c8ebf;" parent="1" edge="1">
          <mxGeometry width="50" height="50" relative="1" as="geometry">
            <mxPoint x="370" y="200" as="sourcePoint" />
            <mxPoint x="470" y="200" as="targetPoint" />
          </mxGeometry>
        </mxCell>
        <mxCell id="EK3I1rne3cS6E6rQjDy5-77" value="0" style="text;html=1;strokeColor=none;fillColor=none;align=center;verticalAlign=middle;whiteSpace=wrap;rounded=0;" parent="1" vertex="1">
          <mxGeometry x="480" y="270" width="30" height="30" as="geometry" />
        </mxCell>
        <mxCell id="EK3I1rne3cS6E6rQjDy5-78" value="1" style="text;html=1;strokeColor=none;fillColor=none;align=center;verticalAlign=middle;whiteSpace=wrap;rounded=0;" parent="1" vertex="1">
          <mxGeometry x="510" y="270" width="30" height="30" as="geometry" />
        </mxCell>
        <mxCell id="EK3I1rne3cS6E6rQjDy5-79" value="2" style="text;html=1;strokeColor=none;fillColor=none;align=center;verticalAlign=middle;whiteSpace=wrap;rounded=0;" parent="1" vertex="1">
          <mxGeometry x="540" y="270" width="30" height="30" as="geometry" />
        </mxCell>
        <mxCell id="EK3I1rne3cS6E6rQjDy5-80" value="3" style="text;html=1;strokeColor=none;fillColor=none;align=center;verticalAlign=middle;whiteSpace=wrap;rounded=0;" parent="1" vertex="1">
          <mxGeometry x="570" y="270" width="30" height="30" as="geometry" />
        </mxCell>
        <mxCell id="EK3I1rne3cS6E6rQjDy5-81" value="4" style="text;html=1;strokeColor=none;fillColor=none;align=center;verticalAlign=middle;whiteSpace=wrap;rounded=0;" parent="1" vertex="1">
          <mxGeometry x="600" y="270" width="30" height="30" as="geometry" />
        </mxCell>
        <mxCell id="EK3I1rne3cS6E6rQjDy5-82" value="x" style="text;html=1;strokeColor=none;fillColor=none;align=center;verticalAlign=middle;whiteSpace=wrap;rounded=0;" parent="1" vertex="1">
          <mxGeometry x="525" y="300" width="60" height="30" as="geometry" />
        </mxCell>
        <mxCell id="EK3I1rne3cS6E6rQjDy5-83" value="" style="shape=curlyBracket;whiteSpace=wrap;html=1;rounded=1;flipH=1;labelPosition=right;verticalLabelPosition=middle;align=left;verticalAlign=middle;rotation=90;" parent="1" vertex="1">
          <mxGeometry x="545" y="225" width="20" height="150" as="geometry" />
        </mxCell>
        <mxCell id="EK3I1rne3cS6E6rQjDy5-84" value="" style="shape=curlyBracket;whiteSpace=wrap;html=1;rounded=1;labelPosition=left;verticalLabelPosition=middle;align=right;verticalAlign=middle;rotation=-180;" parent="1" vertex="1">
          <mxGeometry x="650" y="120" width="20" height="150" as="geometry" />
        </mxCell>
        <mxCell id="EK3I1rne3cS6E6rQjDy5-85" value="0" style="text;html=1;strokeColor=none;fillColor=none;align=center;verticalAlign=middle;whiteSpace=wrap;rounded=0;" parent="1" vertex="1">
          <mxGeometry x="630" y="240" width="30" height="30" as="geometry" />
        </mxCell>
        <mxCell id="EK3I1rne3cS6E6rQjDy5-86" value="1" style="text;html=1;strokeColor=none;fillColor=none;align=center;verticalAlign=middle;whiteSpace=wrap;rounded=0;" parent="1" vertex="1">
          <mxGeometry x="630" y="210" width="30" height="30" as="geometry" />
        </mxCell>
        <mxCell id="EK3I1rne3cS6E6rQjDy5-87" value="2" style="text;html=1;strokeColor=none;fillColor=none;align=center;verticalAlign=middle;whiteSpace=wrap;rounded=0;" parent="1" vertex="1">
          <mxGeometry x="630" y="180" width="30" height="30" as="geometry" />
        </mxCell>
        <mxCell id="EK3I1rne3cS6E6rQjDy5-88" value="3" style="text;html=1;strokeColor=none;fillColor=none;align=center;verticalAlign=middle;whiteSpace=wrap;rounded=0;" parent="1" vertex="1">
          <mxGeometry x="630" y="150" width="30" height="30" as="geometry" />
        </mxCell>
        <mxCell id="EK3I1rne3cS6E6rQjDy5-89" value="4" style="text;html=1;strokeColor=none;fillColor=none;align=center;verticalAlign=middle;whiteSpace=wrap;rounded=0;" parent="1" vertex="1">
          <mxGeometry x="630" y="120" width="30" height="30" as="geometry" />
        </mxCell>
        <mxCell id="EK3I1rne3cS6E6rQjDy5-90" value="y" style="text;html=1;strokeColor=none;fillColor=none;align=center;verticalAlign=middle;whiteSpace=wrap;rounded=0;" parent="1" vertex="1">
          <mxGeometry x="650" y="180" width="60" height="30" as="geometry" />
        </mxCell>
      </root>
    </mxGraphModel>
  </diagram>
</mxfile>
